# xmcd
#
# Track frame offsets:
#	174
#	25748
#	45602
#	69836
#	108988
#	138855
#	158122
#	179103
#	194501
#	221802
#
# Disc length: 3328 seconds
#
# Revision: 0
# Processed by: cddbd v1.5.2PL0 Copyright (c) Steve Scherf et al.
# Submitted via: EasyCDDAExtractor 15.3.0.1
#
DISCID=8d0cfe0a
DTITLE=Snakewater - A New Breed
DYEAR=2012
DGENRE=Blues
TTITLE0=Down To Louisiana
TTITLE1=Muddy Water
TTITLE2=Devil On My Trail
TTITLE3=Same Mistake
TTITLE4=Buit For Comfort
TTITLE5=Evil Love
TTITLE6=Curious Minds
TTITLE7=Hummingbird
TTITLE8=Going Down
TTITLE9=Demons In My Mind
EXTD=
EXTT0=
EXTT1=
EXTT2=
EXTT3=
EXTT4=
EXTT5=
EXTT6=
EXTT7=
EXTT8=
EXTT9=
PLAYORDER=
